<?xml version="1.0" encoding="UTF-8" standalone="no"?>
<!-- Created with Inkscape (http://www.inkscape.org/) -->

<svg
   width="265.80179mm"
   height="99.417023mm"
   viewBox="0 0 265.80179 99.417023"
   version="1.1"
   id="svg22975"
   inkscape:version="1.2.2 (b0a84865, 2022-12-01)"
   sodipodi:docname="logo_transparent_colorful.svg"
   xmlns:inkscape="http://www.inkscape.org/namespaces/inkscape"
   xmlns:sodipodi="http://sodipodi.sourceforge.net/DTD/sodipodi-0.dtd"
   xmlns="http://www.w3.org/2000/svg"
   xmlns:svg="http://www.w3.org/2000/svg">
  <sodipodi:namedview
     id="namedview22977"
     pagecolor="#505050"
     bordercolor="#eeeeee"
     borderopacity="1"
     inkscape:showpageshadow="0"
     inkscape:pageopacity="0"
     inkscape:pagecheckerboard="0"
     inkscape:deskcolor="#505050"
     inkscape:document-units="mm"
     showgrid="false"
     inkscape:zoom="0.71738034"
     inkscape:cx="830.1036"
     inkscape:cy="356.85394"
     inkscape:window-width="1728"
     inkscape:window-height="1080"
     inkscape:window-x="0"
     inkscape:window-y="37"
     inkscape:window-maximized="0"
     inkscape:current-layer="layer1" />
  <defs
     id="defs22972" />
  <g
     inkscape:label="Layer 1"
     inkscape:groupmode="layer"
     id="layer1"
     transform="translate(47.324617,-83.689799)">
    <path
       style="font-style:normal;font-variant:normal;font-weight:normal;font-stretch:normal;font-size:16.3172px;font-family:Silom;-inkscape-font-specification:'Silom, Normal';font-variant-ligatures:normal;font-variant-caps:normal;font-variant-numeric:normal;font-variant-east-asian:normal;fill:#333333;fill-opacity:0.75;stroke:none;stroke-width:0.307574;stroke-opacity:1"
       d="m 139.60208,136.39539 v 14.07048 h 4.191 c 1.1783,0 2.1724,-0.46857 2.9807,-1.4066 0.8417,-0.93797 1.2615,-2.04495 1.2615,-3.3206 v -4.67164 c 0,-3.11419 -1.4142,-4.67164 -4.2422,-4.67164 z"
       id="path6904" />
    <path
       style="font-style:normal;font-variant:normal;font-weight:normal;font-stretch:normal;font-size:16.3172px;font-family:Silom;-inkscape-font-specification:'Silom, Normal';font-variant-ligatures:normal;font-variant-caps:normal;font-variant-numeric:normal;font-variant-east-asian:normal;fill:#333333;fill-opacity:0.75;stroke:none;stroke-width:0.307574;stroke-opacity:1"
       d="m 177.47848,126.99652 c -1.1449,0 -2.139,0.47079 -2.9807,1.40885 -0.808,0.90048 -1.2116,1.9871 -1.2116,3.26276 v 14.07054 c 0,1.27565 0.4036,2.38263 1.2116,3.3206 0.8417,0.93803 1.8358,1.4066 2.9807,1.4066 1.1782,0 2.171,-0.46857 2.9792,-1.4066 0.8417,-0.93797 1.2628,-2.04495 1.2628,-3.3206 v -14.07054 c 0,-1.27566 -0.4211,-2.36228 -1.2628,-3.26276 -0.8082,-0.93806 -1.801,-1.40885 -2.9792,-1.40885 z"
       id="path6902" />
    <path
       style="font-style:normal;font-variant:normal;font-weight:normal;font-stretch:normal;font-size:16.3172px;font-family:Silom;-inkscape-font-specification:'Silom, Normal';font-variant-ligatures:normal;font-variant-caps:normal;font-variant-numeric:normal;font-variant-east-asian:normal;fill:#333333;fill-opacity:0.75;stroke:none;stroke-width:0.307574;stroke-opacity:1"
       d="m 139.60208,117.59762 v 14.07051 h 4.191 c 1.1783,0 2.1724,-0.45047 2.9807,-1.35101 0.8417,-0.93797 1.2615,-2.04488 1.2615,-3.3206 v -4.66942 c 0,-1.31318 -0.4198,-2.42016 -1.2615,-3.32063 -0.8083,-0.93804 -1.8024,-1.40885 -2.9807,-1.40885 z"
       id="path6900" />
    <path
       style="font-style:normal;font-variant:normal;font-weight:normal;font-stretch:normal;font-size:16.3172px;font-family:Silom;-inkscape-font-specification:'Silom, Normal';font-variant-ligatures:normal;font-variant-caps:normal;font-variant-numeric:normal;font-variant-east-asian:normal;fill:#d40000;fill-opacity:0.75;stroke:none;stroke-width:0.307574;stroke-opacity:1"
       d="m 99.080083,112.92823 v 4.66939 h 8.434297 v 37.53989 h 8.3831 v -37.53989 h 8.4332 v -4.66939 z"
       id="path6898" />
    <path
       style="font-style:normal;font-variant:normal;font-weight:normal;font-stretch:normal;font-size:16.3172px;font-family:Silom;-inkscape-font-specification:'Silom, Normal';font-variant-ligatures:normal;font-variant-caps:normal;font-variant-numeric:normal;font-variant-east-asian:normal;fill:#d40000;fill-opacity:0.75;stroke:none;stroke-width:0.307574;stroke-opacity:1"
       d="m 78.021483,112.92823 c -2.3569,0 -4.3601,0.9372 -6.0097,2.81324 -1.616,1.83847 -2.4248,4.03429 -2.4248,6.58563 v 23.41157 c 0,2.5889 0.8251,4.80279 2.4747,6.64126 1.6834,1.83854 3.6703,2.75758 5.9598,2.75758 h 8.4331 c 2.02,0 3.9217,-0.76962 5.7063,-2.308 1.7844,-1.57585 2.6768,-3.93919 2.6768,-7.09084 v -14.07054 h -12.6252 v 4.72726 h 4.2421 v 9.34328 c -0.1352,3.00161 -1.5489,4.57716 -4.2421,4.7272 -1.1449,0 -2.1376,-0.45047 -2.9793,-1.35094 -0.8079,-0.938 -1.2117,-2.06308 -1.2117,-3.37626 V 122.3271 c 0,-1.31318 0.4038,-2.42016 1.2117,-3.32063 0.8417,-0.93804 1.8344,-1.40885 2.9793,-1.40885 h 4.2421 c 2.4578,0 3.8556,1.57779 4.1922,4.72948 h 4.1909 c -0.3029,-6.26585 -3.0973,-9.39887 -8.3831,-9.39887 z"
       id="path6896" />
    <path
       style="font-style:normal;font-variant:normal;font-weight:normal;font-stretch:normal;font-size:16.3172px;font-family:Silom;-inkscape-font-specification:'Silom, Normal';font-variant-ligatures:normal;font-variant-caps:normal;font-variant-numeric:normal;font-variant-east-asian:normal;fill:#d40000;fill-opacity:0.75;stroke:none;stroke-width:0.307574;stroke-opacity:1"
       d="m 40.145383,112.92823 v 42.20928 h 21.0584 v -4.67164 h -12.6255 v -37.53764 z"
       id="path6894" />
    <path
       style="font-style:normal;font-variant:normal;font-weight:normal;font-stretch:normal;font-size:16.3172px;font-family:Silom;-inkscape-font-specification:'Silom, Normal';font-variant-ligatures:normal;font-variant-caps:normal;font-variant-numeric:normal;font-variant-east-asian:normal;fill:#333333;fill-opacity:0.75;stroke:none;stroke-width:0.307574;stroke-opacity:1"
       d="m 129.24268,110.21518 v 48.20071 h 88.0421 v -48.20071 z m 1.9249,2.71305 h 16.8677 c 2.2892,0 4.2589,0.9372 5.9085,2.81324 1.6497,1.83847 2.4747,4.03429 2.4747,6.58563 v 2.30579 c 0,2.77651 -0.7069,4.95419 -2.1211,6.53003 -1.3803,1.53832 -3.4678,2.49363 -6.2621,2.86884 2.7943,0 4.8818,0.95756 6.2621,2.87106 1.4142,1.87603 2.1211,4.05146 2.1211,6.52781 v 2.30804 c 0,2.55137 -0.825,4.76529 -2.4747,6.64126 -1.6496,1.83854 -3.6193,2.75758 -5.9085,2.75758 h -16.8677 z m 71.6114,0 h 8.3833 v 9.39887 h 4.2421 v 4.66942 h -4.2421 v 18.74215 c 0,1.53832 0.455,2.71995 1.364,3.54537 0.9091,0.78799 1.7339,1.18183 2.4745,1.18183 h 0.4036 v 4.67164 h -4.2421 c -2.2897,0 -4.259,-0.91904 -5.9086,-2.75758 -1.6496,-1.83847 -2.4747,-4.05236 -2.4747,-6.64126 v -18.74215 h -4.2422 v -4.66942 h 4.2422 z m -29.4928,9.39887 h 8.4343 c 2.2894,0 4.2588,0.9191 5.9087,2.75758 1.6496,1.8385 2.4745,4.03207 2.4745,6.58345 v 14.07054 c 0,2.55137 -0.8249,4.76529 -2.4745,6.64126 -1.6499,1.83854 -3.6193,2.75758 -5.9087,2.75758 h -8.4343 c -2.2896,0 -4.2754,-0.91904 -5.9589,-2.75758 -1.6495,-1.83847 -2.4743,-4.05236 -2.4743,-6.64126 v -14.07054 c 0,-2.55138 0.8248,-4.74495 2.4743,-6.58345 1.6835,-1.83848 3.6693,-2.75758 5.9589,-2.75758 z"
       id="text3439-6-4-7-0" />
    <path
       style="font-style:normal;font-variant:normal;font-weight:normal;font-stretch:normal;font-size:16.3172px;font-family:Silom;-inkscape-font-specification:'Silom, Normal';font-variant-ligatures:normal;font-variant-caps:normal;font-variant-numeric:normal;font-variant-east-asian:normal;fill:#333333;fill-opacity:1;stroke:none;stroke-width:0.307574;stroke-opacity:1"
       d="m 140.79458,138.39458 v 14.07045 h 4.1912 c 1.1783,0 2.1725,-0.46857 2.9804,-1.40657 0.8416,-0.93797 1.2617,-2.04495 1.2617,-3.32063 v -4.67164 c 0,-3.11419 -1.4141,-4.67161 -4.2421,-4.67161 z"
       id="path6890" />
    <path
       style="font-style:normal;font-variant:normal;font-weight:normal;font-stretch:normal;font-size:16.3172px;font-family:Silom;-inkscape-font-specification:'Silom, Normal';font-variant-ligatures:normal;font-variant-caps:normal;font-variant-numeric:normal;font-variant-east-asian:normal;fill:#333333;fill-opacity:1;stroke:none;stroke-width:0.307574;stroke-opacity:1"
       d="m 178.67088,128.99571 c -1.1446,0 -2.139,0.47079 -2.9804,1.40882 -0.8083,0.90047 -1.2119,1.9871 -1.2119,3.26275 v 14.07055 c 0,1.27568 0.4036,2.38266 1.2119,3.32063 0.8414,0.938 1.8358,1.40657 2.9804,1.40657 1.1783,0 2.1714,-0.46857 2.9792,-1.40657 0.8417,-0.93797 1.2629,-2.04495 1.2629,-3.32063 v -14.07055 c 0,-1.27565 -0.4212,-2.36228 -1.2629,-3.26275 -0.8078,-0.93803 -1.8009,-1.40882 -2.9792,-1.40882 z"
       id="path6888" />
    <path
       style="font-style:normal;font-variant:normal;font-weight:normal;font-stretch:normal;font-size:16.3172px;font-family:Silom;-inkscape-font-specification:'Silom, Normal';font-variant-ligatures:normal;font-variant-caps:normal;font-variant-numeric:normal;font-variant-east-asian:normal;fill:#333333;fill-opacity:1;stroke:none;stroke-width:0.307574;stroke-opacity:1"
       d="m 140.79458,119.59677 v 14.07051 h 4.1912 c 1.1783,0 2.1725,-0.45046 2.9804,-1.351 0.8416,-0.93797 1.2617,-2.04488 1.2617,-3.32057 v -4.66942 c 0,-1.31318 -0.4201,-2.42019 -1.2617,-3.32066 -0.8079,-0.93801 -1.8021,-1.40886 -2.9804,-1.40886 z"
       id="path6886" />
    <path
       style="font-style:normal;font-variant:normal;font-weight:normal;font-stretch:normal;font-size:16.3172px;font-family:Silom;-inkscape-font-specification:'Silom, Normal';font-variant-ligatures:normal;font-variant-caps:normal;font-variant-numeric:normal;font-variant-east-asian:normal;fill:#d40000;fill-opacity:1;stroke:none;stroke-width:0.307574;stroke-opacity:1"
       d="m 100.27248,114.92742 v 4.66935 h 8.4346 v 37.5399 h 8.3831 v -37.5399 h 8.4332 v -4.66935 z"
       id="path6884" />
    <path
       style="font-style:normal;font-variant:normal;font-weight:normal;font-stretch:normal;font-size:16.3172px;font-family:Silom;-inkscape-font-specification:'Silom, Normal';font-variant-ligatures:normal;font-variant-caps:normal;font-variant-numeric:normal;font-variant-east-asian:normal;fill:#d40000;fill-opacity:1;stroke:none;stroke-width:0.307574;stroke-opacity:1"
       d="m 79.213983,114.92742 c -2.3566,0 -4.3602,0.93717 -6.0097,2.81321 -1.6162,1.83847 -2.4246,4.03429 -2.4246,6.58566 v 23.41154 c 0,2.5889 0.8248,4.80278 2.4744,6.64129 1.6835,1.83851 3.6706,2.75755 5.9599,2.75755 h 8.4333 c 2.0201,0 3.9218,-0.76963 5.706,-2.30797 1.7844,-1.57585 2.6771,-3.93919 2.6771,-7.09087 v -14.07055 h -12.6255 v 4.7273 h 4.2424 v 9.34325 c -0.1352,3.00164 -1.5488,4.57715 -4.2424,4.7272 -1.1446,0 -2.1376,-0.45044 -2.9793,-1.35091 -0.8079,-0.93803 -1.2116,-2.06311 -1.2116,-3.37629 v -23.41154 c 0,-1.31318 0.4037,-2.42019 1.2116,-3.32066 0.8417,-0.93801 1.8347,-1.40886 2.9793,-1.40886 h 4.2424 c 2.4575,0 3.8557,1.5778 4.1922,4.72952 h 4.1909 c -0.3032,-6.26588 -3.0973,-9.39887 -8.3831,-9.39887 z"
       id="path6882" />
    <path
       style="font-style:normal;font-variant:normal;font-weight:normal;font-stretch:normal;font-size:16.3172px;font-family:Silom;-inkscape-font-specification:'Silom, Normal';font-variant-ligatures:normal;font-variant-caps:normal;font-variant-numeric:normal;font-variant-east-asian:normal;fill:#d40000;fill-opacity:1;stroke:none;stroke-width:0.307574;stroke-opacity:1"
       d="m 41.337883,114.92742 v 42.20925 h 21.0584 v -4.67164 h -12.6253 v -37.53761 z"
       id="path6880" />
    <path
       style="font-style:normal;font-variant:normal;font-weight:normal;font-stretch:normal;font-size:16.3172px;font-family:Silom;-inkscape-font-specification:'Silom, Normal';font-variant-ligatures:normal;font-variant-caps:normal;font-variant-numeric:normal;font-variant-east-asian:normal;fill:#333333;fill-opacity:1;stroke:none;stroke-width:0.307574;stroke-opacity:1"
       d="m 130.43508,112.21434 v 48.2007 h 88.0421 v -48.2007 z m 1.9252,2.71308 h 16.8676 c 2.2894,0 4.2587,0.93717 5.9086,2.81321 1.6498,1.83847 2.4745,4.03429 2.4745,6.58566 v 2.30576 c 0,2.7765 -0.7071,4.95422 -2.1209,6.53006 -1.3806,1.53832 -3.4677,2.49359 -6.2622,2.86881 2.7945,0 4.8816,0.95756 6.2622,2.87105 1.4138,1.87604 2.1209,4.0515 2.1209,6.52785 v 2.30801 c 0,2.5514 -0.8247,4.76529 -2.4745,6.64129 -1.6499,1.83851 -3.6192,2.75755 -5.9086,2.75755 h -16.8676 z m 71.6114,0 h 8.383 v 9.39887 h 4.2422 v 4.66942 h -4.2422 v 18.74212 c 0,1.53831 0.4553,2.71995 1.3641,3.5454 0.9089,0.78795 1.7341,1.1818 2.4747,1.1818 h 0.4034 v 4.67164 h -4.2422 c -2.2894,0 -4.2589,-0.91904 -5.9086,-2.75755 -1.6497,-1.83851 -2.4744,-4.05239 -2.4744,-6.64129 v -18.74212 h -4.2424 v -4.66942 h 4.2424 z m -29.4931,9.39887 h 8.4344 c 2.2894,0 4.259,0.91907 5.9085,2.75754 1.6498,1.83854 2.4749,4.03211 2.4749,6.58345 v 14.07055 c 0,2.5514 -0.8251,4.76529 -2.4749,6.64129 -1.6495,1.83851 -3.6191,2.75755 -5.9085,2.75755 h -8.4344 c -2.2893,0 -4.2751,-0.91904 -5.9585,-2.75755 -1.6496,-1.83851 -2.4744,-4.05239 -2.4744,-6.64129 v -14.07055 c 0,-2.55134 0.8248,-4.74491 2.4744,-6.58345 1.6834,-1.83847 3.6692,-2.75754 5.9585,-2.75754 z"
       id="text3439-6-9-6-9-0" />
    <path
       style="fill:#333333;fill-opacity:0.2;stroke-width:0.0977352"
       id="path379-1-0-8-2-4-3-5"
       d="m 4.0447831,110.33347 c 0.772,9.10722 0.8164,18.25789 0.8089,27.39136 -0.01,7.13268 -0.052,8.74657 -0.1544,15.63513 -0.093,4.56668 -0.2183,9.13298 -0.4101,13.69666 -0.064,1.51866 -0.1422,3.02639 -0.2962,4.53778 -0.1996,-0.5424 0.047,0.69258 -0.1455,0.61014 -0.065,-0.0281 -0.043,-0.13559 -0.065,-0.20338 0,0 3.6419,0.52226 3.6419,0.52226 v 0 c 0.1087,-0.31307 0.123,-0.57486 0.086,-0.91722 -0.052,-1.51728 -0.1325,-3.03273 -0.1963,-4.54958 -0.1918,-4.56368 -0.3173,-9.12998 -0.4101,-13.69666 -0.102,-6.88856 -0.1485,-8.50245 -0.1543,-15.63513 -0.01,-9.13347 0.037,-18.28414 0.8088,-27.39136 0,0 -3.5137,0 -3.5137,0 z" />
    <path
       style="fill:#aa0000;fill-opacity:0.2;stroke-width:0.0977352"
       id="path557-12-3-4-2-4-8-6"
       d="m -20.757617,83.689799 c 0.018,1.82178 0.056,2.12765 -0.4221,4.74272 -1.5992,8.7515 -2.2622,10.65233 -5.461,19.462501 -2.8594,7.87554 -4.9347,12.49475 -8.1702,20.11263 -2.7953,6.36351 -5.7453,12.65861 -8.8622,18.8708 -1.1268,2.24583 -2.2944,4.46047 -3.5327,6.64575 -0.3589,3.25499 -0.4524,2.16987 8.165,0.17991 1.0728,-0.24775 1.7154,-1.38169 2.5974,-2.04088 1.4671,-1.09652 2.9396,-2.18726 4.4486,-3.22532 4.0782,-2.80538 7.2023,-4.68262 11.4146,-7.30559 7.0787,-4.24835 14.2785001,-8.34159 21.8050001,-11.75069 0.9933,-0.42566 0.8765,-0.38671 1.7116,-0.71344 0.1164,-0.0455 0.2333,-0.0895 0.3504,-0.13295 0.052,-0.0191 0.125,-0.009 0.1558,-0.0547 0.049,-0.0723 0.036,-0.17076 0.054,-0.25614 0,0 -7.3663,-0.33156 -7.3663,-0.33156 v 0 c 0.01,-0.0691 0.044,-0.13874 0.031,-0.20736 0,-0.0272 -0.038,0.0408 -0.059,0.0582 -0.064,0.0512 -0.1292,0.10039 -0.1963,0.14713 -0.2802,0.19518 -0.9838,0.65225 -1.187,0.7855 -6.3322001,4.06959 -12.6975001,8.08698 -19.0842001,12.07052 -3.8705,2.39883 -7.9698,4.98034 -11.9123,7.25766 -1.8477,1.06728 -3.7155,2.10015 -5.5982,3.10443 -1.2223,0.65204 -4.4619,0.69681 -3.7149,1.86351 0.9244,1.44377 7.615,1.36563 5.083,0.78361 0.064,-0.41457 0.1059,-0.83319 0.1922,-1.24371 0.3036,-1.44469 1.0766,-4.24443 1.425,-5.45348 1.8409,-6.38769 3.9272,-12.70283 6.13,-18.97396 2.9201,-7.97985 4.3575,-12.13155 7.6408,-20.13424 1.4503,-3.53496 2.8785,-7.08348 4.5176,-10.534951 1.4272,-3.00511 3.113,-5.88043 4.6734,-8.81851 2.2653,-4.26512 1.6804,-2.50414 2.3695,-4.84211 0,0 -7.1981,-0.0652 -7.1981,-0.0652 z" />
    <path
       style="fill:#333333;fill-opacity:0.2;stroke-width:0.0977352"
       id="path573-4-0-2-3-7-02-7"
       d="m -11.426017,118.60133 c 3.8174001,-3.34519 8.2412001,-5.9634 12.6735001,-8.39829 1.7907,-0.98374 3.6028,-1.92956 5.4329,-2.83782 1.7191,-0.85315 3.4749999,-1.63014 5.2124999,-2.44521 5.187,-2.27947 10.4588,-4.40208 15.8848,-6.047161 0.1926,-0.0556 0.3852,-0.11116 0.5778,-0.16674 0,0 -7.0694,-0.86245 -7.0694,-0.86245 v 0 c -0.1275,0.0638 -0.2551,0.12752 -0.3826,0.19128 -4.4858,2.114281 -8.9955,4.178701 -13.4361999,6.387631 -1.6524,0.82869 -3.3113,1.64476 -4.9573,2.48608 -6.9217,3.5378 -4.0558,2.14631 -10.9742,5.7744 -3.3530001,1.75832 -6.7270001,3.48193 -10.1114001,5.17898 0,0 7.1496,0.7393 7.1496,0.7393 z" />
    <path
       style="fill:#333333;fill-opacity:0.4;stroke-width:0.0977352"
       id="path36243-3-4-8"
       d="m 6.6906831,112.97932 c 0.772,9.10722 0.8164,18.25789 0.8088,27.39136 -0.01,7.13268 -0.052,8.74657 -0.1544,15.63513 -0.093,4.56668 -0.2182,9.13298 -0.41,13.69666 -0.064,1.51866 -0.1422,3.02639 -0.2963,4.53778 -0.1996,-0.5424 0.047,0.69258 -0.1455,0.61014 -0.065,-0.0281 -0.043,-0.13559 -0.065,-0.20338 0,0 3.6419999,0.52226 3.6419999,0.52226 v 0 c 0.1087,-0.31307 0.1229,-0.57486 0.086,-0.91722 -0.052,-1.51728 -0.1326,-3.03273 -0.1962999,-4.54958 -0.1918,-4.56368 -0.3174,-9.12998 -0.4101,-13.69666 -0.1021,-6.88856 -0.1485,-8.50245 -0.1544,-15.63513 -0.01,-9.13347 0.037,-18.28414 0.8088999,-27.39136 0,0 -3.5137999,0 -3.5137999,0 z" />
    <path
       style="fill:#aa0000;fill-opacity:0.4;stroke-width:0.0977352"
       id="path36245-2-8-0"
       d="m -18.111717,86.335649 c 0.018,1.82178 0.056,2.12765 -0.4222,4.74272 -1.5991,8.7515 -2.2621,10.652331 -5.4609,19.462501 -2.8595,7.87554 -4.9348,12.49475 -8.1702,20.11263 -2.7953,6.36351 -5.7454,12.65861 -8.8623,18.8708 -1.1268,2.24583 -2.2943,4.46047 -3.5326,6.64575 -0.3589,3.25499 -0.4524,2.16987 8.1649,0.17991 1.0729,-0.24775 1.7155,-1.38169 2.5974,-2.04088 1.4672,-1.09652 2.9396,-2.18726 4.4486,-3.22532 4.0783,-2.80538 7.2024,-4.68262 11.4147,-7.30559 7.0786,-4.24835 14.2784001,-8.34159 21.8050001,-11.75069 0.9932,-0.42566 0.8764,-0.38671 1.7116,-0.71344 0.1163,-0.0455 0.2332,-0.0895 0.3503,-0.13295 0.052,-0.0191 0.125,-0.009 0.1559,-0.0547 0.049,-0.0723 0.036,-0.17076 0.054,-0.25614 0,0 -7.3664,-0.33156 -7.3664,-0.33156 v 0 c 0.01,-0.0691 0.044,-0.13874 0.031,-0.20736 0,-0.0272 -0.038,0.0408 -0.059,0.0582 -0.064,0.0512 -0.1292,0.10039 -0.1963,0.14713 -0.2802,0.19518 -0.9837,0.65225 -1.187,0.7855 -6.3322,4.06959 -12.6975001,8.08698 -19.0842001,12.07052 -3.8705,2.39883 -7.9697,4.98034 -11.9122,7.25766 -1.8477,1.06728 -3.7156,2.10015 -5.5982,3.10443 -1.2223,0.65204 -4.4619,0.69681 -3.7149,1.86351 0.9244,1.44377 7.6149,1.36563 5.083,0.78361 0.064,-0.41457 0.1059,-0.83319 0.1921,-1.24371 0.3036,-1.44469 1.0767,-4.24443 1.4251,-5.45348 1.8409,-6.38769 3.9272,-12.70283 6.13,-18.97396 2.92,-7.97985 4.3575,-12.13155 7.6408,-20.13424 1.4503,-3.53496 2.8785,-7.08348 4.5176,-10.53495 1.4271,-3.005111 3.1129,-5.880431 4.6734,-8.818511 2.2652,-4.26512 1.6803,-2.50414 2.3694,-4.84211 0,0 -7.198,-0.0652 -7.198,-0.0652 z" />
    <path
       style="fill:#333333;fill-opacity:0.4;stroke-width:0.0977352"
       id="path36247-6-39-6"
       d="m -8.7801169,121.24718 c 3.8174,-3.34519 8.24119995,-5.9634 12.6735,-8.39829 1.7907,-0.98374 3.6027,-1.92956 5.4329,-2.83782 1.7190999,-0.85315 3.4749999,-1.63014 5.2124999,-2.44521 5.187,-2.27947 10.4587,-4.40208 15.8848,-6.04716 0.1926,-0.0556 0.3851,-0.11116 0.5777,-0.16674 0,0 -7.0693,-0.86245 -7.0693,-0.86245 v 0 c -0.1276,0.0638 -0.2551,0.12752 -0.3827,0.19128 -4.4857,2.11428 -8.9955,4.1787 -13.4362,6.38763 -1.6523999,0.82869 -3.3111999,1.64476 -4.9572999,2.48608 -6.9217,3.5378 -4.0558,2.14631 -10.9742,5.7744 -3.353,1.75832 -6.7270001,3.48193 -10.1114001,5.17898 0,0 7.1497001,0.7393 7.1497001,0.7393 z" />
    <path
       style="fill:#333333;fill-opacity:0.6;stroke-width:0.0977352"
       id="path36249-3-05-5"
       d="m 9.3364831,115.62517 c 0.7719999,9.10722 0.8163999,18.25789 0.8088999,27.39136 -0.01,7.13268 -0.052,8.74657 -0.1543999,15.63513 -0.093,4.56668 -0.2183,9.13298 -0.4101,13.69666 -0.064,1.51866 -0.1422,3.02639 -0.2963,4.53778 -0.1995,-0.5424 0.047,0.69258 -0.1454,0.61014 -0.065,-0.0281 -0.043,-0.13559 -0.065,-0.20338 0,0 3.6418999,0.52226 3.6418999,0.52226 v 0 c 0.1087,-0.31307 0.1229,-0.57486 0.086,-0.91722 -0.052,-1.51728 -0.1326,-3.03273 -0.1963,-4.54958 -0.1918,-4.56368 -0.3174,-9.12998 -0.4101,-13.69666 -0.1021,-6.88856 -0.1485,-8.50245 -0.1544,-15.63513 -0.01,-9.13347 0.037,-18.28414 0.8089,-27.39136 0,0 -3.5137999,0 -3.5137999,0 z" />
    <path
       style="fill:#aa0000;fill-opacity:0.6;stroke-width:0.0977352"
       id="path36251-8-22-7"
       d="m -15.465917,88.981499 c 0.018,1.82178 0.056,2.12765 -0.4221,4.74272 -1.5992,8.751501 -2.2622,10.652331 -5.461,19.462501 -2.8595,7.87554 -4.9348,12.49475 -8.1702,20.11263 -2.7953,6.36351 -5.7453,12.65861 -8.8622,18.8708 -1.1268,2.24583 -2.2944,4.46047 -3.5327,6.64575 -0.3589,3.25499 -0.4524,2.16987 8.165,0.17991 1.0728,-0.24775 1.7154,-1.38169 2.5974,-2.04088 1.4671,-1.09652 2.9395,-2.18726 4.4486,-3.22532 4.0782,-2.80538 7.2023,-4.68262 11.4146,-7.30559 7.0787001,-4.24835 14.2784001,-8.34159 21.8050001,-11.75069 0.9932,-0.42566 0.8764,-0.38671 1.7116,-0.71344 0.1163,-0.0455 0.2332,-0.0895 0.3504,-0.13295 0.052,-0.0191 0.125,-0.009 0.1558,-0.0547 0.049,-0.0723 0.036,-0.17076 0.054,-0.25614 0,0 -7.3664,-0.33156 -7.3664,-0.33156 v 0 c 0.01,-0.0691 0.044,-0.13874 0.031,-0.20736 0,-0.0272 -0.038,0.0408 -0.059,0.0582 -0.064,0.0512 -0.1292,0.10039 -0.1963,0.14713 -0.28020005,0.19518 -0.98370005,0.65225 -1.18690005,0.7855 -6.33219995,4.06959 -12.69750005,8.08698 -19.08420005,12.07052 -3.8706,2.39883 -7.9698,4.98034 -11.9123,7.25766 -1.8477,1.06728 -3.7155,2.10015 -5.5982,3.10443 -1.2223,0.65204 -4.4619,0.69681 -3.7149,1.86351 0.9244,1.44377 7.615,1.36563 5.083,0.78361 0.064,-0.41457 0.1059,-0.83319 0.1922,-1.24371 0.3036,-1.44469 1.0766,-4.24443 1.425,-5.45348 1.8409,-6.38769 3.9272,-12.70283 6.13,-18.97396 2.92,-7.97985 4.3575,-12.13155 7.6408,-20.13424 1.4503,-3.53496 2.8785,-7.08348 4.5176,-10.53495 1.4272,-3.005111 3.1129,-5.880431 4.6734,-8.818511 2.2653001,-4.26512 1.6804001,-2.50414 2.3695001,-4.84211 0,0 -7.1981001,-0.0652 -7.1981001,-0.0652 z" />
    <path
       style="fill:#333333;fill-opacity:0.6;stroke-width:0.0977352"
       id="path36253-06-7-3"
       d="m -6.1343169,123.89303 c 3.8174,-3.34519 8.2412,-5.9634 12.6735,-8.39829 1.7907,-0.98374 3.6026999,-1.92956 5.4328999,-2.83782 1.7191,-0.85315 3.475,-1.63014 5.2125,-2.44521 5.187,-2.27947 10.4588,-4.40208 15.8848,-6.04716 0.1926,-0.0556 0.3852,-0.11116 0.5778,-0.16674 0,0 -7.0694,-0.86245 -7.0694,-0.86245 v 0 c -0.1275,0.0638 -0.2551,0.12752 -0.3827,0.19128 -4.4857,2.11428 -8.9955,4.1787 -13.4361,6.38763 -1.6525,0.82869 -3.3112999,1.64476 -4.9573999,2.48608 -6.92170005,3.5378 -4.0557,2.14631 -10.9742,5.7744 -3.3529,1.75832 -6.7269,3.48193 -10.1114001,5.17898 0,0 7.1497001,0.7393 7.1497001,0.7393 z" />
    <path
       style="fill:#333333;fill-opacity:0.8;stroke-width:0.0977352"
       id="path36255-63-3-43"
       d="m 11.982283,118.27102 c 0.772,9.10722 0.8164,18.25789 0.8089,27.39136 -0.01,7.13268 -0.052,8.74657 -0.1544,15.63513 -0.093,4.56668 -0.2183,9.13298 -0.4101,13.69666 -0.064,1.51866 -0.1421,3.02639 -0.2962,4.53778 -0.1996,-0.5424 0.047,0.69258 -0.1455,0.61014 -0.065,-0.0281 -0.043,-0.13559 -0.065,-0.20338 0,0 3.6419,0.52226 3.6419,0.52226 v 0 c 0.1088,-0.31307 0.123,-0.57486 0.086,-0.91722 -0.052,-1.51728 -0.1325,-3.03273 -0.1963,-4.54958 -0.1918,-4.56368 -0.3173,-9.12998 -0.41,-13.69666 -0.1021,-6.88856 -0.1485,-8.50245 -0.1544,-15.63513 -0.01,-9.13347 0.037,-18.28414 0.8089,-27.39136 0,0 -3.5138,0 -3.5138,0 z" />
    <path
       style="fill:#aa0000;fill-opacity:0.8;stroke-width:0.0977352"
       id="path36257-0-79-0"
       d="m -12.820117,91.627349 c 0.018,1.82178 0.056,2.12765 -0.4221,4.74272 -1.5992,8.751501 -2.2622,10.652331 -5.461,19.462501 -2.8594,7.87554 -4.9347,12.49475 -8.1702,20.11263 -2.7952,6.36351 -5.7453,12.65861 -8.8622,18.8708 -1.1268,2.24583 -2.2943,4.46047 -3.5326,6.64575 -0.3589,3.25499 -0.4524,2.16987 8.1649,0.17991 1.0729,-0.24775 1.7155,-1.38169 2.5974,-2.04088 1.4671,-1.09652 2.9396,-2.18726 4.4486,-3.22532 4.0782,-2.80538 7.2024,-4.68262 11.4146,-7.30559 7.0787001,-4.24835 14.2785001,-8.34159 21.8050001,-11.75069 0.9932999,-0.42566 0.8764999,-0.38671 1.7116999,-0.71344 0.1163,-0.0455 0.2332,-0.0895 0.3503,-0.13295 0.052,-0.0191 0.125,-0.009 0.1558,-0.0547 0.049,-0.0723 0.036,-0.17076 0.054,-0.25614 0,0 -7.3662999,-0.33156 -7.3662999,-0.33156 v 0 c 0.01,-0.0691 0.044,-0.13874 0.031,-0.20736 0,-0.0272 -0.038,0.0408 -0.059,0.0582 -0.064,0.0512 -0.1292,0.10039 -0.1963,0.14713 -0.2802,0.19518 -0.9838,0.65225 -1.187,0.7855 -6.3322,4.06959 -12.6975001,8.08698 -19.0842001,12.07052 -3.8705,2.39883 -7.9698,4.98034 -11.9122,7.25766 -1.8477,1.06728 -3.7156,2.10015 -5.5982,3.10443 -1.2223,0.65204 -4.4619,0.69681 -3.7149,1.86351 0.9244,1.44377 7.6149,1.36563 5.083,0.78361 0.064,-0.41457 0.1059,-0.83319 0.1921,-1.24371 0.3036,-1.44469 1.0767,-4.24443 1.4251,-5.45348 1.8409,-6.38769 3.9271,-12.70283 6.1299,-18.97396 2.9201,-7.97985 4.3575,-12.13155 7.6408,-20.13424 1.4503,-3.53496 2.8785,-7.08348 4.5177,-10.53495 1.4271,-3.00511 3.1129001,-5.880431 4.6733001,-8.818511 2.2653,-4.26512 1.6804,-2.50414 2.3695,-4.84211 0,0 -7.1981001,-0.0652 -7.1981001,-0.0652 z" />
    <path
       style="fill:#333333;fill-opacity:0.8;stroke-width:0.0977352"
       id="path36259-7-0-4"
       d="m -3.4885169,126.53888 c 3.81739995,-3.34519 8.2412,-5.9634 12.6735,-8.39829 1.7907999,-0.98374 3.6027999,-1.92956 5.4328999,-2.83782 1.7192,-0.85315 3.475,-1.63014 5.2125,-2.44521 5.187,-2.27947 10.4588,-4.40208 15.8848,-6.04716 0.1926,-0.0556 0.3852,-0.11116 0.5778,-0.16674 0,0 -7.0693,-0.86245 -7.0693,-0.86245 v 0 c -0.1276,0.0638 -0.2552,0.12752 -0.3827,0.19128 -4.4858,2.11428 -8.9955,4.1787 -13.4362,6.38763 -1.6524,0.82869 -3.3113,1.64476 -4.9573,2.48608 -6.9216999,3.5378 -4.0557999,2.14631 -10.97419995,5.7744 -3.35299995,1.75832 -6.72699995,3.48193 -10.11140005,5.17898 0,0 7.1496001,0.7393 7.1496001,0.7393 z" />
    <path
       style="fill:#333333;stroke-width:0.0977352"
       id="path36261-7-2-8"
       d="m 14.628183,120.91687 c 0.772,9.10722 0.8164,18.25789 0.8088,27.39136 -0.01,7.13268 -0.052,8.74657 -0.1544,15.63513 -0.093,4.56668 -0.2182,9.13298 -0.41,13.69666 -0.064,1.51866 -0.1422,3.02639 -0.2963,4.53778 -0.1996,-0.5424 0.047,0.69258 -0.1455,0.61014 -0.065,-0.0281 -0.043,-0.13559 -0.065,-0.20338 0,0 3.642,0.52226 3.642,0.52226 v 0 c 0.1087,-0.31307 0.1229,-0.57486 0.086,-0.91722 -0.052,-1.51728 -0.1326,-3.03273 -0.1963,-4.54958 -0.1918,-4.56368 -0.3174,-9.12998 -0.4101,-13.69666 -0.1021,-6.88856 -0.1485,-8.50245 -0.1544,-15.63513 -0.01,-9.13347 0.037,-18.28414 0.8089,-27.39136 0,0 -3.5138,0 -3.5138,0 z" />
    <path
       style="fill:#d40000;stroke-width:0.0977352"
       id="path36263-8-3-7"
       d="m -10.174217,94.273199 c 0.018,1.82178 0.056,2.12765 -0.4222,4.74272 -1.5991,8.751501 -2.2621,10.652331 -5.4609,19.462501 -2.8595,7.87554 -4.9348,12.49475 -8.1702,20.11263 -2.7953,6.36351 -5.7453,12.65861 -8.8622,18.8708 -1.1268,2.24583 -2.2944,4.46047 -3.5327,6.64575 -0.3589,3.25499 -0.4524,2.16987 8.165,0.17991 1.0728,-0.24775 1.7154,-1.38169 2.5974,-2.04088 1.4671,-1.09652 2.9395,-2.18726 4.4485,-3.22532 4.0783,-2.80538 7.2024,-4.68262 11.4147001,-7.30559 7.0786,-4.24835 14.2784,-8.34159 21.8049999,-11.75069 0.9932,-0.42566 0.8764,-0.38671 1.7116,-0.71344 0.1163,-0.0455 0.2332,-0.0895 0.3503,-0.13295 0.052,-0.0191 0.125,-0.009 0.1559,-0.0547 0.049,-0.0723 0.036,-0.17076 0.054,-0.25614 0,0 -7.3663999,-0.33156 -7.3663999,-0.33156 v 0 c 0.01,-0.0691 0.044,-0.13874 0.031,-0.20736 0,-0.0272 -0.038,0.0408 -0.059,0.0582 -0.064,0.0512 -0.1292,0.10039 -0.1963,0.14713 -0.2802,0.19518 -0.9837,0.65225 -1.187,0.7855 -6.3322,4.06959 -12.6975,8.08698 -19.0842001,12.07052 -3.8705,2.39883 -7.9697,4.98034 -11.9122,7.25766 -1.8477,1.06728 -3.7155,2.10015 -5.5982,3.10443 -1.2223,0.65204 -4.4619,0.69681 -3.7149,1.86351 0.9244,1.44377 7.6149,1.36563 5.083,0.78361 0.064,-0.41457 0.1059,-0.83319 0.1922,-1.24371 0.3036,-1.44469 1.0766,-4.24443 1.425,-5.45348 1.8409,-6.38769 3.9272,-12.70283 6.13,-18.97396 2.92,-7.97985 4.3575,-12.13155 7.6408,-20.13424 1.4503,-3.53496 2.8785,-7.08348 4.5176,-10.53495 1.4271001,-3.00511 3.1129001,-5.88043 4.6734001,-8.818511 2.2652,-4.26512 1.6803,-2.50414 2.3694,-4.84211 0,0 -7.1980001,-0.0652 -7.1980001,-0.0652 z" />
    <path
       style="fill:#333333;stroke-width:0.0977352"
       id="path36265-5-9-59"
       d="m -0.84261695,129.18473 c 3.81740005,-3.34519 8.24120005,-5.9634 12.67349995,-8.39829 1.7907,-0.98374 3.6027,-1.92956 5.4329,-2.83782 1.7191,-0.85315 3.475,-1.63014 5.2125,-2.44521 5.187,-2.27947 10.4587,-4.40208 15.8848,-6.04716 0.1926,-0.0556 0.3851,-0.11116 0.5777,-0.16674 0,0 -7.0693,-0.86245 -7.0693,-0.86245 v 0 c -0.1276,0.0638 -0.2551,0.12752 -0.3827,0.19128 -4.4857,2.11428 -8.9955,4.1787 -13.4362,6.38763 -1.6524,0.82869 -3.3112,1.64476 -4.9573,2.48608 -6.9216999,3.5378 -4.0557999,2.14631 -10.9741999,5.7744 -3.353,1.75832 -6.727,3.48193 -10.1114,5.17898 0,0 7.14969995,0.7393 7.14969995,0.7393 z" />
    <text
       xml:space="preserve"
       style="font-style:normal;font-variant:normal;font-weight:normal;font-stretch:normal;font-size:14.0269px;font-family:'Noto Sans Imperial Aramaic';-inkscape-font-specification:'Noto Sans Imperial Aramaic';fill:#333333;fill-opacity:1;stroke:none;stroke-width:1.1689"
       x="47.225231"
       y="157.38562"
       id="text15069-9"
       transform="scale(0.89429145,1.1182037)"><tspan
         sodipodi:role="line"
         id="tspan15067-4"
         style="fill:#333333;stroke-width:1.1689"
         x="47.225231"
         y="157.38562">即时通信平台智力竞技游戏助手</tspan></text>
  </g>
</svg>
